#N canvas 1319 252 791 407 10;
#X obj 191 372 dac~;
#X obj 222 99 osc~;
#X floatatom 222 29 5 0 0 0 - - -;
#X obj 218 67 sig~;
#X obj 251 152 pan~ 0.4;
#X obj 279 102 osc~;
#X floatatom 279 32 5 0 0 0 - - -;
#X obj 275 70 sig~;
#X obj 327 70 hsl 128 15 0 1 0 0 empty empty empty -2 -8 0 10 -262144
-1 -1 2200 0;
#X obj 355 205 pan~ 0.6;
#X obj 491 159 osc~;
#X floatatom 491 89 5 0 0 0 - - -;
#X obj 487 127 sig~;
#X obj 36 142 phasor~;
#X floatatom 23 46 5 0 0 0 - - -;
#X obj 19 84 sig~;
#X obj 43 252 pan~;
#X obj 48 172 hsl 128 15 0 1 0 0 empty empty empty -2 -8 0 10 -262144
-1 -1 6000 0;
#X obj 448 198 hsl 128 15 0 1 0 0 empty empty empty -2 -8 0 10 -262144
-1 -1 10400 0;
#X obj 17 276 delwrite~ phas;
#X obj 37 317 delread~ phas;
#X floatatom 46 297 5 0 0 0 - - -;
#X connect 1 0 4 0;
#X connect 2 0 3 0;
#X connect 3 0 1 0;
#X connect 4 0 0 0;
#X connect 4 0 9 0;
#X connect 4 0 0 1;
#X connect 4 0 16 1;
#X connect 5 0 4 1;
#X connect 6 0 7 0;
#X connect 7 0 5 0;
#X connect 8 0 4 2;
#X connect 9 0 0 1;
#X connect 10 0 9 1;
#X connect 11 0 12 0;
#X connect 12 0 10 0;
#X connect 13 0 16 0;
#X connect 14 0 15 0;
#X connect 15 0 13 0;
#X connect 16 0 19 0;
#X connect 17 0 16 2;
#X connect 18 0 9 2;
#X connect 20 0 0 0;
#X connect 20 0 0 1;
#X connect 21 0 20 0;
