#N canvas 1669 238 450 300 10;
#X obj 147 249 dac~;
#X obj 124 121 osc~;
#X floatatom 124 51 5 0 0 0 - - -;
#X obj 120 89 sig~;
#X obj 153 174 pan~ 0.4;
#X obj 181 124 osc~;
#X floatatom 181 54 5 0 0 0 - - -;
#X obj 177 92 sig~;
#X obj 235 131 hsl 128 15 0 1 0 0 empty empty empty -2 -8 0 10 -262144
-1 -1 11700 1;
#X connect 1 0 4 0;
#X connect 2 0 3 0;
#X connect 3 0 1 0;
#X connect 4 0 0 0;
#X connect 4 0 0 1;
#X connect 5 0 4 1;
#X connect 6 0 7 0;
#X connect 7 0 5 0;
#X connect 8 0 4 2;
