#N canvas 830 120 450 300 10;
#X obj 166 127 pyext rss rss;
#X obj 81 39 bng 15 250 50 0 empty empty empty 17 7 0 10 -262144 -1
-1;
#X obj 136 198 print;
#X msg 108 40 url http://twitter.com/statuses/public_timeline.rss;
#X msg 23 96 reload;
#X obj 48 6 loadbang;
#X msg 212 73 url http://feed.cracktheplates.com;
#X connect 0 0 2 0;
#X connect 1 0 0 1;
#X connect 3 0 0 1;
#X connect 4 0 0 0;
#X connect 5 0 3 0;
#X connect 6 0 0 1;
